<svg width="139" height="30" viewBox="0 0 139 30" fill="none" xmlns="http://www.w3.org/2000/svg">
<path d="M22.8492 27.4739C24.5219 29.1466 26.7066 30 29.4376 30C31.2468 30 32.7488 29.5221 33.9095 28.5663C35.0701 27.6105 35.6504 26.3815 35.6504 24.9137C35.6846 21.6366 32.3733 20.3052 29.8813 19.5201C28.1404 18.8715 26.7408 18.0522 26.7408 16.8233C26.7408 15.4237 27.9014 14.6727 29.6765 14.6727C31.281 14.6727 33.0561 15.253 34.046 16.2088L35.3773 13.8193C33.9777 12.5562 32.1002 11.9076 29.7789 11.9076C26.2287 11.9076 23.5661 13.751 23.5661 16.8916C23.5661 20.2369 26.8091 21.3976 29.301 22.3193C31.042 22.9679 32.4416 23.7872 32.4416 24.9819C32.4416 26.3815 31.2809 27.2349 29.5058 27.2349C27.4918 27.2349 25.8191 26.5522 24.4195 25.2209L22.8492 27.4739Z" fill="white"/>
<path d="M40.3021 23.2751C40.3021 26.7229 41.9065 28.3956 43.6475 29.1466C44.9105 29.6586 45.8663 29.7611 46.9246 29.7611C47.1635 29.7611 47.539 29.7269 48.0852 29.6586V26.7229C47.3683 26.8594 46.4467 26.8594 45.4567 26.4157C44.5009 25.9719 43.6133 24.9478 43.6133 22.8996V15.1847H47.778V12.4879H43.6133V7.57228H40.3703V12.4879H38.0491V15.1847H40.3021V23.2751Z" fill="white"/>
<path d="M54.7976 29.5904V22.4217C54.7976 20.5442 55.2414 18.9056 56.1289 17.506C57.0506 16.1064 58.3478 15.3896 60.0888 15.3896C60.5325 15.3896 60.8739 15.4237 61.0446 15.4578V12.1807C60.6691 12.1466 60.396 12.1124 60.157 12.1124C57.5968 12.1124 55.5145 14.0582 54.661 16.6867H54.5928L54.6952 15.4237V12.3173H51.4863V29.5904H54.7976Z" fill="white"/>
<path d="M62.661 20.9197C62.661 23.5141 63.5485 25.6647 65.3578 27.4056C67.167 29.1466 69.3859 30 71.9803 30C74.5747 30 76.7594 29.1466 78.5686 27.4056C80.3779 25.6647 81.2654 23.5141 81.2654 20.9197C81.2654 18.3253 80.3779 16.1747 78.5686 14.4679C76.7594 12.761 74.5747 11.9076 71.9461 11.9076C69.3518 11.9076 67.167 12.761 65.3578 14.502C63.5485 16.2088 62.661 18.3594 62.661 20.9197ZM66.0405 20.9197C66.0405 19.1446 66.6208 17.6767 67.7473 16.5161C68.908 15.3554 70.3076 14.7751 71.9803 14.7751C73.6188 14.7751 75.0184 15.3554 76.1791 16.5161C77.3397 17.6767 77.92 19.1446 77.92 20.9197C77.92 22.6948 77.3397 24.1627 76.1791 25.3574C75.0184 26.5522 73.6188 27.1325 71.9803 27.1325C70.3076 27.1325 68.908 26.5522 67.7473 25.3916C66.6208 24.1968 66.0405 22.7289 66.0405 20.9197Z" fill="white"/>
<path d="M88.5675 29.5904V21.5341C88.5675 19.7932 89.0454 18.257 90.0012 16.9257C90.957 15.5944 92.2201 14.9116 93.7562 14.9116C96.1116 14.9116 96.7261 16.5161 96.7261 19.247V29.5904H100.037V21.5341C100.037 19.7932 100.515 18.257 101.437 16.9257C102.393 15.5944 103.622 14.9116 105.158 14.9116C107.513 14.9116 108.196 16.4819 108.196 19.247V29.5904H111.507V18.5301C111.507 14.0582 109.732 11.9076 105.806 11.9076C104.475 11.9076 103.212 12.2831 102.086 13.0683C100.959 13.8534 100.174 14.7751 99.6618 15.8333H99.5936C99.0133 13.2048 97.2723 11.9076 94.4389 11.9076C93.1418 11.9076 91.9128 12.3173 90.7863 13.1365C89.6598 13.9558 88.8747 14.9116 88.4309 15.9699H88.3626L88.465 14.6727V12.3173H85.2562V29.5904H88.5675Z" fill="white"/>
<path d="M118.132 8.83533C119.056 8.83533 119.805 8.08644 119.805 7.16264C119.805 6.23884 119.056 5.48995 118.132 5.48995H118.064C117.14 5.48995 116.391 6.23884 116.391 7.16264C116.391 8.08644 117.14 8.83533 118.064 8.83533H118.132ZM119.77 29.5904V12.3173H116.459V29.5904H119.77Z" fill="white"/>
<path d="M126.635 29.5904L130.254 23.8213L130.766 22.8996H130.834L131.38 23.8213L134.999 29.5904H138.754L132.848 20.7149L138.412 12.3173H134.623L131.414 17.5743C131.244 17.8815 131.073 18.2229 130.834 18.5984H130.766L130.219 17.5743L127.011 12.3173H123.221L128.786 20.7149L122.88 29.5904H126.635Z" fill="white"/>
<path d="M3.84794 29.5904L10.8459 4.92204L17.7757 29.5904H21.2576L12.621 0.834961H9.0367L0.400146 29.5904H3.84794Z" fill="white"/>
</svg>
