<svg width="63" height="44" viewBox="0 0 63 44" fill="none" xmlns="http://www.w3.org/2000/svg">
<path d="M60.4573 5.38291C61.2803 6.83675 61.4604 8.68906 60.9003 10.9238C60.3378 13.1685 59.0454 15.7106 57.06 18.3912C53.0918 23.7491 46.5217 29.4352 38.2661 34.1084C30.0105 38.7815 21.7538 41.4882 15.1177 42.133C11.7976 42.4556 8.95287 42.2554 6.73874 41.5824C4.53448 40.9125 3.03902 39.8047 2.21606 38.3509C1.39311 36.8971 1.21301 35.0448 1.77305 32.8101C2.33559 30.5653 3.62801 28.0232 5.61334 25.3426C9.58161 19.9847 16.1517 14.2986 24.4073 9.62545C32.6629 4.95229 40.9195 2.24562 47.5557 1.6008C50.8757 1.27819 53.7205 1.47842 55.9346 2.15138C58.1389 2.82134 59.6344 3.92908 60.4573 5.38291Z" stroke="white" stroke-width="2.9"/>
</svg>
