<svg width="261" height="357" viewBox="0 0 261 357" fill="none" xmlns="http://www.w3.org/2000/svg">
<path d="M-144.386 283.267C-150.127 273.323 -150.624 260.922 -146.518 246.952C-142.412 232.981 -133.715 217.485 -121.141 201.417C-95.9945 169.283 -55.4115 134.944 -5.34507 106.038C44.7213 77.1321 94.7515 59.1557 135.153 53.4455C155.356 50.5901 173.124 50.8055 187.277 54.2356C201.428 57.6653 211.919 64.2959 217.66 74.2394C223.401 84.1829 223.898 96.5838 219.792 110.554C215.687 124.526 206.989 140.021 194.415 156.09C169.269 188.223 128.686 222.563 78.6193 251.468C28.5529 280.374 -21.4773 298.351 -61.8791 304.061C-82.0814 306.916 -99.8501 306.701 -114.003 303.271C-128.154 299.841 -138.645 293.21 -144.386 283.267Z" stroke="white"/>
</svg>
