<?xml version="1.0" standalone="no"?>
<!DOCTYPE svg PUBLIC "-//W3C//DTD SVG 20010904//EN"
 "http://www.w3.org/TR/2001/REC-SVG-20010904/DTD/svg10.dtd">
<svg version="1.0" xmlns="http://www.w3.org/2000/svg"
 width="370.000000pt" height="307.000000pt" viewBox="0 0 370.000000 307.000000"
 preserveAspectRatio="xMidYMid meet">
<metadata>
Created by potrace 1.15, written by Peter Selinger 2001-2017
</metadata>
<g transform="translate(0.000000,307.000000) scale(0.100000,-0.100000)"
fill="#62bd1f" stroke="none">
<path d="M26 3044 l-26 -27 0 -1482 0 -1482 26 -27 27 -26 1797 0 1797 0 27
26 26 27 0 1482 0 1482 -26 27 -27 26 -648 0 -649 0 -4 -22 c-3 -13 -7 -45
-10 -73 -9 -76 -67 -187 -133 -256 -235 -246 -642 -182 -794 126 -22 45 -42
102 -45 130 -3 28 -7 60 -10 73 l-4 22 -649 0 -648 0 -27 -26z m1288 -26 c2
-7 8 -39 14 -70 24 -126 120 -266 232 -338 174 -112 406 -112 580 0 112 72
208 212 232 338 6 31 12 63 14 70 3 9 136 12 623 12 550 0 621 -2 635 -16 14
-14 16 -162 16 -1479 0 -1317 -2 -1465 -16 -1479 -14 -14 -190 -16 -1794 -16
-1604 0 -1780 2 -1794 16 -14 14 -16 162 -16 1479 0 1317 2 1465 16 1479 14
14 85 16 635 16 487 0 620 -3 623 -12z"/>
</g>
</svg>
